<svg width="254" height="46" viewBox="0 0 254 46" fill="none" xmlns="http://www.w3.org/2000/svg">
<path d="M8.03089 15.22C3.56489 15.22 1.05689 13.46 1.05689 10.028V9.896H4.35689V10.292C4.35689 11.656 5.03889 12.206 8.03089 12.206C10.6709 12.206 11.2869 11.81 11.2869 10.82C11.2869 9.918 10.7809 9.588 9.26289 9.324L5.12689 8.73C2.48689 8.312 0.924891 6.992 0.924891 4.594C0.924891 2.372 2.72889 0.0399998 7.67889 0.0399998C12.2109 0.0399998 14.3229 2.13 14.3229 5.232V5.364H11.0009V5.056C11.0009 3.648 10.2749 3.054 7.34889 3.054C4.97289 3.054 4.24689 3.516 4.24689 4.462C4.24689 5.32 4.73089 5.628 5.96289 5.848L10.0989 6.508C13.3989 7.036 14.5869 8.642 14.5869 10.666C14.5869 13.064 12.7169 15.22 8.03089 15.22ZM23.6968 15H20.9688C18.3948 15 16.8328 13.79 16.8328 11.018V6.706H15.0948V3.978H16.8328V1.844H20.1328V3.978H23.6968V6.706H20.1328V10.644C20.1328 11.744 20.5508 12.03 21.7168 12.03H23.6968V15ZM28.3207 15.22C25.9447 15.22 24.5147 14.12 24.5147 12.272C24.5147 10.644 25.7247 9.632 28.0787 9.39L32.8087 8.906V8.488C32.8087 7.058 32.1707 6.662 30.4107 6.662C28.7387 6.662 28.0567 7.102 28.0567 8.356V8.444H24.7347V8.378C24.7347 5.65 27.0227 3.758 30.6527 3.758C34.3267 3.758 36.0647 5.65 36.0647 8.532V15H32.9847V12.47H32.8087C32.3027 14.186 30.7627 15.22 28.3207 15.22ZM27.8367 12.052C27.8367 12.646 28.2987 12.888 29.2667 12.888C31.5107 12.888 32.7207 12.36 32.8087 10.798L28.9807 11.238C28.1887 11.304 27.8367 11.524 27.8367 12.052ZM41.0374 15H37.7374V3.978H40.7954V6.904H40.9934C41.3014 5.122 42.4674 3.758 44.6894 3.758C47.1534 3.758 48.1654 5.452 48.1654 7.608V9.434H44.8654V8.29C44.8654 7.08 44.3814 6.552 43.0394 6.552C41.5654 6.552 41.0374 7.234 41.0374 8.62V15ZM57.1265 15H54.3985C51.8245 15 50.2625 13.79 50.2625 11.018V6.706H48.5245V3.978H50.2625V1.844H53.5625V3.978H57.1265V6.706H53.5625V10.644C53.5625 11.744 53.9805 12.03 55.1465 12.03H57.1265V15ZM69.303 15.22C64.441 15.22 61.427 12.228 61.427 7.63C61.427 3.032 64.441 0.0399998 69.303 0.0399998C73.879 0.0399998 76.827 2.328 76.827 6.068V6.398H73.153V6.068C73.153 4.132 72.053 3.208 69.369 3.208C66.135 3.208 64.925 4.352 64.925 7.63C64.925 10.908 66.135 12.052 69.369 12.052C72.053 12.052 73.153 11.128 73.153 9.192V8.862H76.827V9.192C76.827 12.932 73.901 15.22 69.303 15.22ZM81.557 15H78.257V0.26H81.557V7.344H81.733C82.085 5.474 83.383 3.758 86.199 3.758C89.169 3.758 90.621 5.694 90.621 8.246V15H87.321V9.236C87.321 7.388 86.529 6.728 84.461 6.728C82.239 6.728 81.557 7.63 81.557 9.478V15ZM95.6743 15.22C93.2983 15.22 91.8683 14.12 91.8683 12.272C91.8683 10.644 93.0783 9.632 95.4323 9.39L100.162 8.906V8.488C100.162 7.058 99.5243 6.662 97.7643 6.662C96.0923 6.662 95.4103 7.102 95.4103 8.356V8.444H92.0883V8.378C92.0883 5.65 94.3763 3.758 98.0063 3.758C101.68 3.758 103.418 5.65 103.418 8.532V15H100.338V12.47H100.162C99.6563 14.186 98.1163 15.22 95.6743 15.22ZM95.1903 12.052C95.1903 12.646 95.6523 12.888 96.6203 12.888C98.8643 12.888 100.074 12.36 100.162 10.798L96.3343 11.238C95.5423 11.304 95.1903 11.524 95.1903 12.052ZM112.857 15H110.129C107.555 15 105.993 13.79 105.993 11.018V6.706H104.255V3.978H105.993V1.844H109.293V3.978H112.857V6.706H109.293V10.644C109.293 11.744 109.711 12.03 110.877 12.03H112.857V15ZM125.231 15H120.325L116.849 0.26H120.545L122.327 8.62L122.833 11.854H123.075L123.757 8.62L126.221 0.26H131.127L133.569 8.62L134.251 11.854H134.493L134.999 8.62L136.781 0.26H140.389L136.891 15H131.985L129.785 7.63L128.751 3.384H128.509L127.475 7.63L125.231 15ZM144.828 2.856H141.528V0.26H144.828V2.856ZM144.828 15H141.528V3.978H144.828V15ZM154.322 15H151.594C149.02 15 147.458 13.79 147.458 11.018V6.706H145.72V3.978H147.458V1.844H150.758V3.978H154.322V6.706H150.758V10.644C150.758 11.744 151.176 12.03 152.342 12.03H154.322V15ZM158.858 15H155.558V0.26H158.858V7.344H159.034C159.386 5.474 160.684 3.758 163.5 3.758C166.47 3.758 167.922 5.694 167.922 8.246V15H164.622V9.236C164.622 7.388 163.83 6.728 161.762 6.728C159.54 6.728 158.858 7.63 158.858 9.478V15ZM178.988 15.22C174.214 15.22 172.432 12.91 172.432 9.016V8.378H175.93V9.016C175.93 11.194 176.37 12.008 178.988 12.008C181.584 12.008 182.09 11.238 182.09 9.17V0.26H185.588V9.17C185.588 12.954 183.784 15.22 178.988 15.22ZM190.635 15.22C188.259 15.22 186.829 14.12 186.829 12.272C186.829 10.644 188.039 9.632 190.393 9.39L195.123 8.906V8.488C195.123 7.058 194.485 6.662 192.725 6.662C191.053 6.662 190.371 7.102 190.371 8.356V8.444H187.049V8.378C187.049 5.65 189.337 3.758 192.967 3.758C196.641 3.758 198.379 5.65 198.379 8.532V15H195.299V12.47H195.123C194.617 14.186 193.077 15.22 190.635 15.22ZM190.151 12.052C190.151 12.646 190.613 12.888 191.581 12.888C193.825 12.888 195.035 12.36 195.123 10.798L191.295 11.238C190.503 11.304 190.151 11.524 190.151 12.052ZM202.164 18.74H200.36V15.748H203.066C203.88 15.748 204.232 15.528 204.452 15.044L199.062 3.978H202.802L205.134 9.016L206.058 11.612H206.278L207.158 8.994L209.248 3.978H212.922L207.466 15.792C206.41 18.102 204.936 18.74 202.164 18.74ZM218.644 15.22C215.212 15.22 213.32 12.976 213.32 9.5C213.32 5.98 215.19 3.758 218.468 3.758C221.086 3.758 222.428 5.056 222.802 6.904H223V0.26H226.3V15H223.22V11.942H223.044C222.626 14.12 221.174 15.22 218.644 15.22ZM216.664 9.5C216.664 11.502 217.654 12.206 219.766 12.206C221.856 12.206 223 11.48 223 9.566V9.39C223 7.476 221.878 6.772 219.766 6.772C217.654 6.772 216.664 7.476 216.664 9.5ZM233.92 15.22C230.158 15.22 227.628 12.976 227.628 9.5C227.628 5.98 230.158 3.758 233.92 3.758C237.682 3.758 240.212 5.98 240.212 9.5C240.212 12.976 237.682 15.22 233.92 15.22ZM233.92 12.294C236.142 12.294 236.934 11.436 236.934 9.5C236.934 7.564 236.142 6.662 233.92 6.662C231.676 6.662 230.906 7.564 230.906 9.5C230.906 11.436 231.676 12.294 233.92 12.294ZM244.86 15H241.56V3.978H244.618V7.366H244.816C245.102 5.518 246.422 3.758 249.304 3.758C252.318 3.758 253.748 5.694 253.748 8.136V15H250.448V9.236C250.448 7.476 249.722 6.728 247.698 6.728C245.608 6.728 244.86 7.564 244.86 9.434V15ZM72.222 42H68.922V27.26H72.222V33.112H75.896L79.812 27.26H83.772L78.646 34.52L83.706 42H79.746L75.94 36.324H72.222V42ZM90.4796 42.22C86.7176 42.22 84.1876 39.976 84.1876 36.5C84.1876 32.98 86.7176 30.758 90.4796 30.758C94.2416 30.758 96.7716 32.98 96.7716 36.5C96.7716 39.976 94.2416 42.22 90.4796 42.22ZM90.4796 39.294C92.7016 39.294 93.4936 38.436 93.4936 36.5C93.4936 34.564 92.7016 33.662 90.4796 33.662C88.2356 33.662 87.4656 34.564 87.4656 36.5C87.4656 38.436 88.2356 39.294 90.4796 39.294ZM101.419 42H98.1193V30.978H101.177V33.904H101.375C101.683 32.122 102.849 30.758 105.071 30.758C107.535 30.758 108.547 32.452 108.547 34.608V36.434H105.247V35.29C105.247 34.08 104.763 33.552 103.421 33.552C101.947 33.552 101.419 34.234 101.419 35.62V42ZM115.308 42.22C111.59 42.22 109.544 40.768 109.544 38.216V38.15H112.844V38.348C112.844 39.338 113.46 39.602 115.33 39.602C117.09 39.602 117.508 39.316 117.508 38.656C117.508 38.04 117.178 37.864 115.88 37.688L112.778 37.314C110.578 37.072 109.346 36.082 109.346 34.234C109.346 32.298 110.996 30.758 114.78 30.758C118.388 30.758 120.434 32.122 120.434 34.806V34.872H117.134V34.74C117.134 33.838 116.694 33.376 114.67 33.376C113.02 33.376 112.602 33.662 112.602 34.366C112.602 34.938 112.91 35.18 114.362 35.356L116.716 35.642C119.664 35.972 120.764 36.962 120.764 38.788C120.764 40.856 118.718 42.22 115.308 42.22ZM126.936 40.878C123.658 40.878 121.766 38.92 121.766 35.818C121.766 32.738 123.768 30.758 127.068 30.758C129.312 30.758 130.918 31.726 131.27 33.64H131.446V30.978H134.526V40.394C134.526 44.244 132.194 45.96 128.256 45.96C124.692 45.96 122.448 44.376 122.448 41.604H125.748C125.748 42.836 126.232 43.21 128.476 43.21C130.588 43.21 131.226 42.77 131.226 40.614V38.128H131.05C130.698 39.756 129.4 40.878 126.936 40.878ZM125.088 35.818C125.088 37.446 126.012 38.04 128.08 38.04C130.192 38.04 131.226 37.446 131.226 35.928V35.686C131.226 34.19 130.17 33.618 128.124 33.618C126.012 33.618 125.088 34.19 125.088 35.818ZM139.664 42.22C137.288 42.22 135.858 41.12 135.858 39.272C135.858 37.644 137.068 36.632 139.422 36.39L144.152 35.906V35.488C144.152 34.058 143.514 33.662 141.754 33.662C140.082 33.662 139.4 34.102 139.4 35.356V35.444H136.078V35.378C136.078 32.65 138.366 30.758 141.996 30.758C145.67 30.758 147.408 32.65 147.408 35.532V42H144.328V39.47H144.152C143.646 41.186 142.106 42.22 139.664 42.22ZM139.18 39.052C139.18 39.646 139.642 39.888 140.61 39.888C142.854 39.888 144.064 39.36 144.152 37.798L140.324 38.238C139.532 38.304 139.18 38.524 139.18 39.052ZM152.468 42.22C150.092 42.22 148.662 41.12 148.662 39.272C148.662 37.644 149.872 36.632 152.226 36.39L156.956 35.906V35.488C156.956 34.058 156.318 33.662 154.558 33.662C152.886 33.662 152.204 34.102 152.204 35.356V35.444H148.882V35.378C148.882 32.65 151.17 30.758 154.8 30.758C158.474 30.758 160.212 32.65 160.212 35.532V42H157.132V39.47H156.956C156.45 41.186 154.91 42.22 152.468 42.22ZM151.984 39.052C151.984 39.646 152.446 39.888 153.414 39.888C155.658 39.888 156.868 39.36 156.956 37.798L153.128 38.238C152.336 38.304 151.984 38.524 151.984 39.052ZM165.185 42H161.885V30.978H164.943V33.904H165.141C165.449 32.122 166.615 30.758 168.837 30.758C171.301 30.758 172.313 32.452 172.313 34.608V36.434H169.013V35.29C169.013 34.08 168.529 33.552 167.187 33.552C165.713 33.552 165.185 34.234 165.185 35.62V42ZM178.436 42.22C175.004 42.22 173.112 39.976 173.112 36.5C173.112 32.98 174.982 30.758 178.26 30.758C180.878 30.758 182.22 32.056 182.594 33.904H182.792V27.26H186.092V42H183.012V38.942H182.836C182.418 41.12 180.966 42.22 178.436 42.22ZM176.456 36.5C176.456 38.502 177.446 39.206 179.558 39.206C181.648 39.206 182.792 38.48 182.792 36.566V36.39C182.792 34.476 181.67 33.772 179.558 33.772C177.446 33.772 176.456 34.476 176.456 36.5Z" fill="url(#paint0_linear_219_1766)"/>
<defs>
<linearGradient id="paint0_linear_219_1766" x1="0" y1="-6" x2="21.889" y2="97.3647" gradientUnits="userSpaceOnUse">
<stop stop-color="#8E8CED"/>
<stop offset="1" stop-color="#4A46FF"/>
<stop offset="1" stop-color="#0500FA"/>
</linearGradient>
</defs>
</svg>
